<svg width="48" height="48" viewBox="0 0 48 48" fill="none" xmlns="http://www.w3.org/2000/svg">
<path d="M13.1262 34.7659C20.6088 42.2355 29.7219 48 37.1516 48C40.4919 48 43.4169 46.8365 45.7731 44.2514C47.145 42.7262 48 40.9429 48 39.1861C48 37.8936 47.5073 36.6529 46.2658 35.7739L38.3423 30.1384C37.1262 29.3113 36.1165 28.8977 35.1842 28.8977C33.9935 28.8977 32.9573 29.5704 31.7666 30.7328L29.9285 32.5426C29.7999 32.6727 29.6469 32.7762 29.4782 32.8471C29.3095 32.9181 29.1284 32.9552 28.9454 32.9562C28.5311 32.9562 28.1677 32.8018 27.8838 32.6716C26.3042 31.8191 23.5604 29.4668 20.9965 26.9336C18.4592 24.4003 16.1031 21.6609 15.2746 20.0584C15.0962 19.7422 14.9987 19.3869 14.9907 19.024C14.9907 18.6887 15.0935 18.3513 15.3785 18.0678L17.19 16.182C18.3565 14.992 19.0292 13.9575 19.0292 12.7687C19.0292 11.839 18.615 10.831 17.7611 9.61566L12.1939 1.78329C11.2881 0.542597 10.02 0 8.62153 0C6.91269 0 5.12652 0.775296 3.62535 2.24979C1.11345 4.65398 0 7.62503 0 10.9071C0 18.3259 5.67 27.3218 13.1262 34.7659Z" fill="white"/>
</svg>
