<svg width="48" height="48" viewBox="0 0 48 48" fill="none" xmlns="http://www.w3.org/2000/svg">
<path fill-rule="evenodd" clip-rule="evenodd" d="M24 0C10.7448 0 0 10.7448 0 24C0 28.536 1.26 32.784 3.4512 36.4032L1.3104 43.68C1.18748 44.0978 1.1794 44.541 1.28699 44.963C1.39458 45.385 1.61387 45.7702 1.92182 46.0782C2.22977 46.3861 2.615 46.6054 3.037 46.713C3.459 46.8206 3.9022 46.8125 4.32 46.6896L11.5968 44.5488C15.3378 46.8119 19.6278 48.0056 24 48C37.2552 48 48 37.2552 48 24C48 10.7448 37.2552 0 24 0ZM18.5712 29.4312C23.4264 34.284 28.0608 34.9248 29.6976 34.9848C32.1864 35.076 34.6104 33.1752 35.5536 30.9696C35.6717 30.695 35.7143 30.3939 35.6772 30.0973C35.6401 29.8007 35.5245 29.5194 35.3424 29.2824C34.0272 27.6024 32.2488 26.3952 30.5112 25.1952C30.1486 24.9438 29.7026 24.8428 29.2671 24.9135C28.8315 24.9842 28.4404 25.2211 28.176 25.5744L26.736 27.7704C26.6599 27.888 26.5419 27.9723 26.406 28.0062C26.2701 28.04 26.1264 28.021 26.004 27.9528C25.0272 27.3936 23.604 26.4432 22.5816 25.4208C21.5592 24.3984 20.6664 23.04 20.1648 22.1256C20.1041 22.0091 20.087 21.8748 20.1164 21.7468C20.1459 21.6187 20.2201 21.5054 20.3256 21.4272L22.5432 19.7808C22.8606 19.5062 23.0655 19.1242 23.1186 18.7079C23.1718 18.2916 23.0694 17.8703 22.8312 17.5248C21.756 15.9504 20.5032 13.9488 18.6864 12.6216C18.4514 12.4528 18.1768 12.3475 17.8892 12.316C17.6016 12.2844 17.3108 12.3277 17.0448 12.4416C14.8368 13.3872 12.9264 15.8112 13.0176 18.3048C13.0776 19.9416 13.7184 24.576 18.5712 29.4312Z" fill="url(#paint0_linear_75_295)"/>
<defs>
<linearGradient id="paint0_linear_75_295" x1="0" y1="24" x2="48" y2="24" gradientUnits="userSpaceOnUse">
<stop stop-color="#FF8181"/>
<stop offset="0.552885" stop-color="#FF7682"/>
<stop offset="1" stop-color="#FC9379"/>
</linearGradient>
</defs>
</svg>
