<?xml version="1.0" encoding="UTF-8"?>
<svg xmlns="http://www.w3.org/2000/svg" width="72" height="48" viewBox="0 0 72 48" fill="none">
  <g clip-path="url(#clip0_256_931)">
    <path d="M0 6C0 2.68629 2.68629 0 6 0H66C69.3137 0 72 2.68629 72 6V42C72 45.3137 69.3137 48 66 48H6C2.68629 48 0 45.3137 0 42V6Z" fill="white"></path>
    <path d="M59.8318 15.3083H48.2804C48.9533 19.1214 52.6542 22.7102 56.6916 22.7102H65.8879C66 22.3738 66 21.813 66 21.4766C66 18.1121 63.1963 15.3083 59.8318 15.3083Z" fill="url(#paint0_linear_256_931)"></path>
    <path d="M49.2897 23.3831V32.6915H54.8971V27.7569H59.8317C62.5233 27.7569 64.8785 25.8503 65.6635 23.3831H49.2897Z" fill="#4FAD50"></path>
    <path d="M29.5514 15.3083V32.5794H34.486C34.486 32.5794 35.7196 32.5794 36.3925 31.3457C39.757 24.7289 40.7663 22.7102 40.7663 22.7102H41.4392V32.5794H47.0467V15.3083H42.1122C42.1122 15.3083 40.8785 15.4205 40.2056 16.542C37.4019 22.2616 35.8318 25.1775 35.8318 25.1775H35.1589V15.3083H29.5514Z" fill="#4FAD50"></path>
    <path d="M6 32.6914V15.4204H11.6075C11.6075 15.4204 13.1776 15.4204 14.0748 17.8877C16.3178 24.3924 16.5421 25.2896 16.5421 25.2896C16.5421 25.2896 16.9907 23.7195 19.0094 17.8877C19.9065 15.4204 21.4767 15.4204 21.4767 15.4204H27.0841V32.6914H21.4767V23.383H20.8038L17.6636 32.6914H15.1963L12.0561 23.383H11.3832V32.6914H6Z" fill="#4FAD50"></path>
  </g>
  <defs>
    <linearGradient id="paint0_linear_256_931" x1="48.2604" y1="19.0623" x2="65.9603" y2="19.0623" gradientUnits="userSpaceOnUse">
      <stop stop-color="#27B1E6"></stop>
      <stop offset="1" stop-color="#148ACA"></stop>
    </linearGradient>
    <clipPath id="clip0_256_931">
      <rect width="72" height="48" fill="white"></rect>
    </clipPath>
  </defs>
</svg>
