<?xml version="1.0" encoding="UTF-8"?>
<svg xmlns="http://www.w3.org/2000/svg" width="72" height="48" viewBox="0 0 72 48" fill="none">
  <g clip-path="url(#clip0_256_925)">
    <path d="M0 6C0 2.68629 2.68629 0 6 0H66C69.3137 0 72 2.68629 72 6V42C72 45.3137 69.3137 48 66 48H6C2.68629 48 0 45.3137 0 42V6Z" fill="white"></path>
    <path d="M7.17035 9.99857C6.70221 10.2326 6.3121 10.6228 6.15606 11.0129C6.07803 11.247 6 13.3536 6 17.1767V22.9505H8.73082V19.2834H12.3199L13.2562 21.0779L14.1925 22.8724H15.7529C16.6112 22.8724 17.3134 22.8724 17.3134 22.7944C17.3134 22.7164 16.8453 21.7801 16.2211 20.6878L15.1287 18.6592L15.4408 18.5031C17.0013 17.4888 17.7035 15.3822 17.3134 13.0415C17.0793 11.6371 16.3771 10.6228 15.2848 10.1546C14.6606 9.92055 14.5826 9.84253 11.0715 9.84253C8.3407 9.84253 7.48244 9.84253 7.17035 9.99857ZM13.9584 12.6514C14.1144 12.7294 14.3485 12.9635 14.4265 13.1975C14.6606 13.7437 14.6606 15.0701 14.5045 15.4602C14.0364 16.3965 13.4122 16.6306 10.7594 16.6306H8.80885V12.4953H11.2276C12.554 12.4953 13.8023 12.5733 13.9584 12.6514ZM21.2926 9.92055C20.1222 10.3107 19.264 11.0909 18.9519 12.2613C18.6398 13.1975 18.3277 15.3042 18.3277 16.3965C18.3277 17.4108 18.6398 19.4394 18.8739 20.2977C19.342 21.7021 20.0442 22.4823 21.3706 22.7944C21.9948 22.9505 22.541 22.9505 24.5696 22.9505C26.8323 22.9505 27.0663 22.8724 27.6905 22.6384C29.329 21.9362 30.0312 19.9856 30.0312 16.3965C30.0312 12.5733 29.251 10.7008 27.5345 10.0766C26.9103 9.84253 26.6762 9.84253 24.1795 9.84253C22.8531 9.84253 21.5267 9.92055 21.2926 9.92055ZM26.7542 12.8074C27.5345 13.8997 27.5345 19.2053 26.7542 19.9856C26.5202 20.2196 21.9948 20.2196 21.8388 19.9856C21.2926 19.2834 21.0585 15.4602 21.5266 13.6657C21.6827 12.9635 21.7607 12.7294 21.9948 12.6514C22.1508 12.5733 23.2432 12.5733 24.4916 12.5733C26.3641 12.5733 26.6762 12.5733 26.7542 12.8074ZM32.684 10.0766C32.4499 10.2326 32.1378 10.5447 31.9818 10.7788C31.7477 11.1689 31.7477 11.403 31.6697 16.0844C31.6697 19.3614 31.6697 21.1559 31.7477 21.468C31.9818 22.1702 32.4499 22.7164 33.1522 22.8724C33.8544 23.0285 39.0819 23.0285 40.0182 22.8724C41.8127 22.5603 42.749 21.546 42.9051 19.5955C42.9831 18.5031 42.827 17.7229 42.3589 16.9427L42.0468 16.3965L42.515 15.5382C42.9051 14.758 42.9831 14.68 42.9831 13.5096C42.9831 12.5733 42.9051 12.1832 42.749 11.7151C42.4369 11.0129 41.9688 10.5447 41.2666 10.1546L40.6424 9.84253H36.9753C33.1521 9.84253 33.1521 9.84253 32.684 10.0766ZM39.9402 12.6514C40.0962 12.8074 40.1743 13.5876 40.0962 13.9778C40.0182 14.2118 39.8622 14.4459 39.7061 14.68C39.394 14.9921 39.394 14.9921 36.9753 14.9921H34.5566V12.4953H37.2094C38.6138 12.5733 39.8621 12.6514 39.9402 12.6514ZM39.394 17.8789C39.8622 18.035 40.0962 18.5811 40.0962 19.2053C40.0962 19.5955 40.0182 19.8295 39.8621 19.9075C39.7061 20.0636 39.0039 20.0636 37.0533 20.0636H34.4005V17.5668L36.7412 17.6449C38.0676 17.7229 39.238 17.8009 39.394 17.8789ZM46.8062 10.0766C45.6359 10.5447 45.0897 11.325 44.6216 13.0415C44.3875 13.8997 44.3875 14.3679 44.3875 16.3965C44.3875 18.5031 44.3875 18.7372 44.6996 19.8295C45.0897 21.1559 45.4018 21.7021 46.104 22.2482C46.9623 22.8724 47.1964 22.8724 50.1612 22.8724C53.1261 22.8724 53.4382 22.7944 54.2185 22.2482C54.9207 21.7801 55.2328 21.1559 55.6229 19.8295C55.935 18.7372 55.935 18.5031 55.935 16.3965C55.935 14.4459 55.935 13.9778 55.7009 13.0415C55.2328 11.2469 54.6866 10.4667 53.5162 10.0766C52.8921 9.84253 52.658 9.84253 50.1612 9.84253C47.6645 9.84253 47.3524 9.84253 46.8062 10.0766ZM52.4239 12.6514C52.736 12.8074 52.8921 13.1195 53.1261 14.4459C53.4382 16.0844 53.1261 19.1273 52.658 19.8295C52.502 20.1416 52.5019 20.1416 50.1612 20.1416C47.4304 20.1416 47.5865 20.2196 47.2744 18.6592C46.8062 16.4745 47.1964 12.8854 47.8205 12.6514C48.2107 12.4953 52.1118 12.4953 52.4239 12.6514Z" fill="#2F69B1"></path>
    <path d="M6.39012 25.4397L6 25.8298V37.4553L6.31211 37.7674C6.62421 38.0795 6.78024 38.0795 7.32641 38.0795C7.87257 38.0795 8.02863 38.0015 8.2627 37.8454C8.65281 37.3773 8.73082 36.9092 8.73082 34.8805V32.93H10.4473L11.3056 33.7102C13.0221 35.1926 13.6463 35.9729 13.6463 36.8311C13.6463 37.2993 13.7243 37.4553 14.0364 37.7674C14.4265 38.1575 14.5046 38.1575 15.0507 38.1575C15.5189 38.1575 15.6749 38.0795 15.987 37.8454C16.3771 37.5333 16.3771 37.4553 16.3771 36.5971C16.3771 35.8949 16.2991 35.5828 15.987 34.9586C15.5969 34.1003 14.3485 32.6959 13.6463 32.0717L13.1782 31.6816L13.9584 30.9794C14.8947 30.1211 15.7529 29.0288 16.143 28.1705C16.3771 27.7024 16.4552 27.3123 16.4552 26.6881C16.4552 25.8298 16.4552 25.8298 16.065 25.4397C15.7529 25.1276 15.5969 25.1276 14.9727 25.1276C14.2705 25.1276 14.1925 25.1276 13.9584 25.4397C13.8023 25.6738 13.7243 25.9079 13.7243 26.298C13.7243 26.6101 13.6463 27.0002 13.5683 27.1562C13.3342 27.6244 12.476 28.6387 11.3836 29.575L10.5254 30.2772H8.80885V28.3266C8.80885 27.3123 8.73084 26.22 8.65281 25.9859C8.49677 25.3617 8.02862 25.0496 7.32641 25.0496C6.78024 25.1276 6.70221 25.1276 6.39012 25.4397ZM21.2926 25.2837C19.7321 25.7518 18.8739 26.9222 18.2497 29.1848C17.9376 30.1991 17.9376 30.5893 17.8596 33.5541C17.7815 37.0652 17.8596 37.4553 18.4057 37.8454C18.7959 38.1575 19.8101 38.1575 20.1222 37.8454C20.5124 37.5333 20.6684 37.1432 20.6684 35.9729V34.8025H26.7542V36.1289C26.7542 37.3773 26.7542 37.4553 27.0663 37.7674C27.3784 38.0795 27.5345 38.0795 28.0806 38.0795C28.7048 38.0795 28.7828 38.0795 29.0949 37.6894L29.407 37.2993V33.5541C29.329 30.0431 29.329 29.731 29.0949 28.9508C28.5488 27.0782 27.6905 25.9079 26.5982 25.4397C25.974 25.1276 25.818 25.1276 23.8674 25.1276C22.3849 25.1276 21.6047 25.1276 21.2926 25.2837ZM25.3498 27.9365C25.974 28.1705 26.5201 29.575 26.6762 31.3695L26.7542 32.1497H20.6684L20.7464 31.2134C20.9025 29.575 21.5267 28.0145 22.1508 27.8584C22.697 27.7804 24.9597 27.8584 25.3498 27.9365ZM33.1522 25.2837C31.9818 25.6738 31.3576 26.22 30.9675 27.2343C30.7334 27.7804 30.7334 28.0925 30.7334 29.0288C30.7334 30.9014 31.2796 31.9937 32.606 32.6179C33.1521 32.8519 33.3082 32.93 35.6489 32.93C38.0676 33.008 38.1456 33.008 38.3797 33.2421C38.6918 33.5542 38.7698 34.5685 38.4577 35.0366L38.2237 35.3487H35.1027C32.1378 35.3487 31.9038 35.3487 31.6697 35.5828C31.0455 36.1289 30.9675 37.2212 31.5917 37.7674L31.9818 38.0795H35.4148C37.2874 38.0795 39.0039 38.0015 39.238 37.9235C39.8622 37.7674 40.5644 37.0652 41.0325 36.2069C41.4226 35.5047 41.4226 35.3487 41.4226 34.1003C41.4226 32.93 41.4226 32.7739 41.1105 32.1497C40.7204 31.2915 40.1742 30.7453 39.6281 30.4332C39.238 30.2772 38.8478 30.1991 36.5071 30.1211C33.3862 30.0431 33.4642 30.1211 33.4642 28.8727C33.4642 27.6244 33.3082 27.7024 37.0533 27.6244L40.2523 27.5464L40.5644 27.2343C40.8765 26.9222 40.8765 26.8441 40.9545 25.9079L41.0325 24.8936H37.3654C34.7126 25.1276 33.4642 25.2056 33.1522 25.2837ZM44.7776 25.2837C44.5436 25.3617 44.1534 25.5177 43.9194 25.5958C42.4369 26.376 41.7347 29.1068 42.671 30.9794C43.0611 31.7596 43.4512 32.2278 44.1535 32.6179C44.6996 32.93 44.7776 32.93 47.1183 33.008C48.4447 33.008 49.6151 33.086 49.7711 33.164C50.1612 33.3201 50.3953 33.9443 50.2393 34.6465C50.0832 35.5047 50.2393 35.5047 46.6502 35.5047H43.4512L43.1391 35.8168C42.827 36.1289 42.827 36.285 42.827 36.8311C42.827 37.3773 42.9051 37.5333 43.1391 37.8454L43.4512 38.1575H46.9623C50.9415 38.1575 51.0195 38.1575 51.7997 37.3773C52.5019 36.6751 52.814 35.8949 52.8921 34.4904C52.9701 32.93 52.658 31.9937 51.7997 31.1354C51.4096 30.7453 51.0195 30.5112 50.7074 30.4332C50.4733 30.3552 49.303 30.2772 48.0546 30.2772C46.8062 30.2772 45.7139 30.2772 45.4798 30.1991C45.0897 30.1211 44.8557 29.731 44.8557 29.0288C44.8557 28.3266 45.0117 27.9365 45.4798 27.8584C45.7139 27.8584 47.1183 27.7804 48.6788 27.7804C52.3459 27.7804 52.4239 27.7024 52.4239 25.9859V25.1276H48.7568C46.3381 25.1276 45.0897 25.2056 44.7776 25.2837ZM57.6515 25.3617C57.3394 25.5177 56.8713 25.7518 56.6372 25.9079C55.7009 26.6101 54.8427 28.4826 54.6086 30.4332C54.4525 31.7596 54.4525 36.9872 54.6086 37.4553C54.7646 37.9235 55.2328 38.1575 55.935 38.1575C56.3251 38.1575 56.5592 38.0795 56.8713 37.8454L57.2614 37.5333V36.2069L57.3394 34.8805H63.2692L63.3472 36.2069V37.5333L63.7373 37.8454C64.0494 38.1575 64.2055 38.1575 64.6736 38.1575C65.1417 38.1575 65.2978 38.0795 65.6099 37.8454L66 37.5333V33.8662C66 30.5112 66 30.1211 65.7659 29.2629C65.2198 27.3123 64.4395 26.1419 63.3472 25.5958C62.645 25.2837 62.645 25.2837 60.4603 25.2056C58.5097 25.1276 58.1977 25.1276 57.6515 25.3617ZM62.3329 28.2486C62.801 28.7947 63.1912 29.9651 63.1912 31.1354L63.2692 32.0717H57.2614V31.3695C57.2614 29.8871 57.8856 28.1705 58.5878 27.8584C58.7438 27.7804 59.5241 27.7804 60.4603 27.7804H62.0208L62.3329 28.2486Z" fill="#D31223"></path>
  </g>
  <defs>
    <clipPath id="clip0_256_925">
      <rect width="72" height="48" fill="white"></rect>
    </clipPath>
  </defs>
</svg>
