<?xml version="1.0" encoding="UTF-8"?>
<svg xmlns="http://www.w3.org/2000/svg" width="72" height="48" viewBox="0 0 72 48" fill="none">
  <g clip-path="url(#clip0_256_917)">
    <path d="M0 6C0 2.68629 2.68629 0 6 0H66C69.3137 0 72 2.68629 72 6V42C72 45.3137 69.3137 48 66 48H6C2.68629 48 0 45.3137 0 42V6Z" fill="white"></path>
    <path d="M61.9649 15.0527H58.193C57.0527 15.0527 56.1755 15.4036 55.6492 16.544L48.4562 32.9475H53.5439C53.5439 32.9475 54.4211 30.7545 54.5965 30.2282C55.1228 30.2282 60.1228 30.2282 60.8246 30.2282C61 30.8422 61.4386 32.8598 61.4386 32.8598H66L61.9649 15.0527ZM56 26.544C56.4386 25.4913 57.9299 21.544 57.9299 21.544C57.9299 21.6317 58.3685 20.4913 58.5439 19.8773L58.8948 21.4562C58.8948 21.4562 59.8597 25.7545 60.0351 26.6317H56V26.544Z" fill="#3362AB"></path>
    <path d="M48.807 27.0703C48.807 30.7545 45.4737 33.2106 40.2982 33.2106C38.1052 33.2106 36 32.772 34.8596 32.2457L35.5614 28.2106L36.1754 28.4738C37.7544 29.1755 38.807 29.4387 40.7368 29.4387C42.1403 29.4387 43.6315 28.9124 43.6315 27.6843C43.6315 26.8948 43.0175 26.3685 41.0877 25.4913C39.2456 24.6141 36.7894 23.2106 36.7894 20.6667C36.7894 17.158 40.2105 14.7896 45.0351 14.7896C46.8772 14.7896 48.4561 15.1404 49.421 15.579L48.7193 19.4387L48.3684 19.0878C47.4912 18.7369 46.3508 18.386 44.6842 18.386C42.8421 18.4738 41.9649 19.2632 41.9649 19.965C41.9649 20.7545 43.0175 21.3685 44.6842 22.158C47.4912 23.4738 48.807 24.965 48.807 27.0703Z" fill="#3362AB"></path>
    <path d="M6 15.2283L6.08772 14.8774H13.6316C14.6842 14.8774 15.4737 15.2283 15.7368 16.3687L17.4035 24.2634C15.7368 20.0529 11.8772 16.6318 6 15.2283Z" fill="#F9B50B"></path>
    <path d="M28.0176 15.0528L20.386 32.8598H15.2105L10.8246 17.9475C13.9825 19.9651 16.6141 23.123 17.579 25.316L18.1053 27.1581L22.8421 14.9651H28.0176V15.0528Z" fill="#3362AB"></path>
    <path d="M30.0351 14.9651H34.8597L31.7895 32.8598H26.965L30.0351 14.9651Z" fill="#3362AB"></path>
  </g>
  <defs>
    <clipPath id="clip0_256_917">
      <rect width="72" height="48" fill="white"></rect>
    </clipPath>
  </defs>
</svg>
