<svg width="67" height="68" viewBox="0 0 67 68" fill="none" xmlns="http://www.w3.org/2000/svg">
<path fill-rule="evenodd" clip-rule="evenodd" d="M54.2713 13.0157C51.5613 10.3044 48.3418 8.15588 44.7981 6.69384C41.2544 5.2318 37.4565 4.48512 33.623 4.49678C17.5352 4.49678 4.43875 17.5278 4.43221 33.5476C4.42503 38.6486 5.76966 43.6605 8.3292 48.073L4.1875 63.1218L19.6616 59.0821C23.9449 61.4027 28.7397 62.6172 33.6112 62.6154H33.623C49.7096 62.6154 62.8047 49.5831 62.8125 33.5646C62.8223 29.7442 62.0721 25.96 60.6058 22.4323C59.1395 18.9045 56.9862 15.7036 54.2713 13.0157ZM33.623 57.7121H33.6125C29.2698 57.7133 25.0061 56.5511 21.2647 54.3463L20.3787 53.8229L11.1963 56.2203L13.6473 47.31L13.0702 46.394C10.642 42.5496 9.35546 38.0946 9.36037 33.5476C9.36037 20.2352 20.2492 9.404 33.6322 9.404C40.0521 9.39254 46.2137 11.9316 50.7618 16.4627C55.3098 20.9938 57.8719 27.1459 57.8843 33.5659C57.8791 46.8795 46.9955 57.7121 33.623 57.7121ZM46.9301 39.6286C46.2012 39.2648 42.6117 37.5087 41.947 37.2666C41.2822 37.0245 40.7915 36.9028 40.306 37.6304C39.8205 38.358 38.4216 39.9858 37.9963 40.4766C37.571 40.9673 37.1457 41.0209 36.4169 40.6571C35.688 40.2934 33.3364 39.5278 30.5504 37.0546C28.3821 35.1296 26.9191 32.7532 26.4938 32.027C26.0685 31.3007 26.448 30.9068 26.8131 30.5456C27.1415 30.2198 27.542 29.6977 27.9071 29.2737C28.2722 28.8497 28.3939 28.5461 28.636 28.0619C28.878 27.5778 28.7577 27.1538 28.5758 26.7913C28.3939 26.4288 26.9348 22.855 26.3276 21.4012C25.7348 19.9853 25.1342 20.1777 24.6866 20.1554C24.2613 20.1345 23.7706 20.1292 23.2877 20.1292C22.9186 20.1388 22.5554 20.2245 22.2208 20.3807C21.8862 20.537 21.5875 20.7605 21.3432 21.0374C20.6745 21.765 18.7901 23.5237 18.7901 27.0936C18.7901 30.6634 21.4073 34.1181 21.7685 34.6023C22.1296 35.0865 26.9112 42.4185 34.2276 45.5631C35.5861 46.1449 36.9743 46.6551 38.3863 47.0915C40.1333 47.6437 41.7232 47.5665 42.9795 47.3794C44.381 47.1713 47.2978 45.6233 47.9037 43.9273C48.5096 42.2314 48.5109 40.7789 48.329 40.4766C48.1471 40.1743 47.6603 39.9911 46.9301 39.6286Z" fill="#E2DCCD"/>
</svg>
