<svg width="17" height="22" viewBox="0 0 17 22" fill="none" xmlns="http://www.w3.org/2000/svg">
<path d="M16.6682 16.6862L15.2228 15.2308V9.58974C15.2228 6.12615 13.3853 3.22667 10.1809 2.45949V1.69231C10.1809 0.755897 9.43016 0 8.50019 0C7.57023 0 6.81953 0.755897 6.81953 1.69231V2.45949C3.60387 3.22667 1.77755 6.11487 1.77755 9.58974V15.2308L0.332185 16.6862C-0.373692 17.3969 0.119301 18.6154 1.11649 18.6154H15.8727C16.8811 18.6154 17.3741 17.3969 16.6682 16.6862ZM12.9819 16.359H4.01843V9.58974C4.01843 6.7918 5.7103 4.51282 8.50019 4.51282C11.2901 4.51282 12.9819 6.7918 12.9819 9.58974V16.359ZM8.50019 22C9.73267 22 10.7411 20.9846 10.7411 19.7436H6.25931C6.25931 20.9846 7.2565 22 8.50019 22Z" fill="black"/>
</svg>
