<svg width="46" height="46" viewBox="0 0 46 46" fill="none" xmlns="http://www.w3.org/2000/svg">
<path d="M23.1758 0.00236552C26.212 0.0261793 29.2134 0.651013 32.0069 1.84082C34.8004 3.03062 37.3306 4.76184 39.4516 6.9346C41.5751 9.10813 43.2469 11.6809 44.3703 14.5044C45.4937 17.3278 46.0466 20.3459 45.9969 23.3843C44.4376 53.726 1.02168 53.4684 0.000556697 23.0278C-0.0206747 19.9837 0.565589 16.9659 1.72502 14.1512C2.88445 11.3365 4.59375 8.78144 6.75282 6.6356C8.91066 4.49194 11.4749 2.80094 14.2951 1.66187C17.1153 0.522796 20.1346 -0.0414105 23.1758 0.00236552ZM27.3569 19.2673C27.3569 19.2673 27.3937 19.2903 27.1108 19.6491C26.7642 20.0677 26.3884 20.4612 25.9862 20.8267L20.1355 26.5077C18.8844 27.7589 18.9097 28.5271 20.3654 29.5759C22.2306 30.9053 24.1211 32.1335 26.0391 33.4399C27.9548 34.744 30.3053 36.6599 31.2781 33.847C31.5249 33.0957 31.712 32.329 31.8392 31.547C32.2486 29.293 32.658 27.0436 33.0145 24.7666C33.4997 21.5696 33.9597 18.3726 34.369 15.1479C34.5737 13.5609 33.7297 12.8456 32.1451 13.2297C31.4916 13.3834 30.851 13.588 30.2294 13.8415L13.5419 20.8796C11.9596 21.542 10.375 22.2596 8.81576 23.0278C8.43169 23.2302 7.94643 23.7937 7.97173 24.1778C7.99703 24.5619 8.53518 24.9966 8.96985 25.176C10.0416 25.6107 11.1915 25.9166 12.3161 26.2754C13.1713 26.5676 14.0856 26.6434 14.9773 26.4961C15.869 26.3488 16.7104 25.983 17.4263 25.4313C19.549 23.9178 21.7044 22.4509 23.8911 21.0314C24.9145 20.3414 25.6297 19.9573 26.6279 19.265C27.1384 19.012 27.2534 18.8924 27.3569 19.0465V19.2673Z" fill="white"/>
</svg>
