<svg width="46" height="46" viewBox="0 0 46 46" fill="none" xmlns="http://www.w3.org/2000/svg">
<path d="M30.0679 0H15.9574C3.0636 0 0 3.0659 0 15.9321V30.0449C0 42.9341 3.0429 46 15.9321 46H30.0449C42.9341 46 46 42.9571 46 30.0679V15.9574C46 3.0636 42.9571 0 30.0679 0ZM37.1358 32.821H33.7801C32.5105 32.821 32.1287 31.7929 29.8517 29.5159C27.8645 27.6 27.025 27.3608 26.5213 27.3608C25.8267 27.3608 25.6358 27.5517 25.6358 28.5108V31.5284C25.6358 32.3449 25.3713 32.8233 23.2392 32.8233C21.1704 32.6828 19.1644 32.0535 17.3859 30.9872C15.6075 29.9208 14.1074 28.4479 13.0088 26.6892C10.4014 23.4474 8.58826 19.6407 7.7142 15.5733C7.7142 15.0696 7.9051 14.6142 8.8642 14.6142H12.2199C13.0824 14.6142 13.3929 14.9983 13.7287 15.8838C15.3571 20.677 18.1355 24.8446 19.2625 24.8446C19.6949 24.8446 19.8835 24.6537 19.8835 23.575V18.6392C19.7409 16.3875 18.5449 16.1966 18.5449 15.3824C18.5603 15.1676 18.6587 14.9673 18.8193 14.8239C18.9798 14.6805 19.19 14.6053 19.4051 14.6142H24.6767C25.3966 14.6142 25.6358 14.973 25.6358 15.8355V22.4963C25.6358 23.2162 25.9463 23.4554 26.1625 23.4554C26.5949 23.4554 26.9284 23.2162 27.7196 22.425C29.419 20.3526 30.8074 18.0437 31.8412 15.571C31.9475 15.2744 32.1476 15.0206 32.4112 14.8479C32.6747 14.6753 32.9873 14.5932 33.3017 14.6142H36.6574C37.6625 14.6142 37.8764 15.1179 37.6625 15.8355C36.4424 18.5689 34.9326 21.1636 33.1591 23.575C32.798 24.127 32.6531 24.4145 33.1591 25.0608C33.4926 25.5645 34.6679 26.5466 35.4591 27.4804C36.6084 28.6277 37.5632 29.9545 38.2858 31.4088C38.5733 32.3426 38.0926 32.821 37.1358 32.821Z" fill="white"/>
</svg>
