<svg width="80" height="42" viewBox="0 0 80 42" fill="none" xmlns="http://www.w3.org/2000/svg">
<path d="M0.00195147 4.14746C-0.0128972 3.62274 0.0755424 3.09983 0.262694 2.60937C0.449846 2.11892 0.732111 1.66962 1.09277 1.28809C1.45328 0.906839 1.88529 0.600169 2.36426 0.385742C2.84352 0.171226 3.36084 0.0529288 3.88574 0.0380858C4.41055 0.0232638 4.93328 0.111784 5.42383 0.298828C5.91445 0.485916 6.36346 0.768371 6.74512 1.12891L39.9775 32.5078L73.2178 1.1289C73.5977 0.760236 74.0472 0.46996 74.54 0.276364C75.033 0.082768 75.5604 -0.0105548 76.0898 0.000973237C76.6192 0.0125575 77.1411 0.128945 77.625 0.343747C78.109 0.558611 78.5456 0.868033 78.9092 1.25293C79.2726 1.63775 79.5563 2.09075 79.7432 2.58593C79.93 3.08115 80.0158 3.60876 79.9971 4.13769C79.9783 4.66664 79.8552 5.18721 79.6338 5.66797C79.4122 6.14881 79.097 6.5813 78.707 6.93945L42.7236 40.9072C41.9814 41.6087 40.999 42 39.9775 42C38.9561 42 37.9737 41.6087 37.2314 40.9072L1.25195 6.93945C0.87048 6.57908 0.564171 6.1468 0.349608 5.66797C0.135082 5.18901 0.0168561 4.67202 0.00195147 4.14746Z" fill="#FF6100"/>
<path d="M0.00195147 4.14746C-0.0128972 3.62274 0.0755424 3.09983 0.262694 2.60937C0.449846 2.11892 0.732111 1.66962 1.09277 1.28809C1.45328 0.906839 1.88529 0.600169 2.36426 0.385742C2.84352 0.171226 3.36084 0.0529288 3.88574 0.0380858C4.41055 0.0232638 4.93328 0.111784 5.42383 0.298828C5.91445 0.485916 6.36346 0.768371 6.74512 1.12891L39.9775 32.5078L73.2178 1.1289C73.5977 0.760236 74.0472 0.46996 74.54 0.276364C75.033 0.082768 75.5604 -0.0105548 76.0898 0.000973237C76.6192 0.0125575 77.1411 0.128945 77.625 0.343747C78.109 0.558611 78.5456 0.868033 78.9092 1.25293C79.2726 1.63775 79.5563 2.09075 79.7432 2.58593C79.93 3.08115 80.0158 3.60876 79.9971 4.13769C79.9783 4.66664 79.8552 5.18721 79.6338 5.66797C79.4122 6.14881 79.097 6.5813 78.707 6.93945L42.7236 40.9072C41.9814 41.6087 40.999 42 39.9775 42C38.9561 42 37.9737 41.6087 37.2314 40.9072L1.25195 6.93945C0.87048 6.57908 0.564171 6.1468 0.349608 5.66797C0.135082 5.18901 0.0168561 4.67202 0.00195147 4.14746Z" stroke="#FF6100"/>
</svg>
