<svg width="32" height="33" viewBox="0 0 32 33" fill="none" xmlns="http://www.w3.org/2000/svg">
<path d="M15.9998 10.3691C14.4995 10.3691 13.0606 10.9652 11.9997 12.0261C10.9388 13.087 10.3427 14.5259 10.3427 16.0262C10.3427 17.5266 10.9388 18.9655 11.9997 20.0264C13.0606 21.0873 14.4995 21.6833 15.9998 21.6833C17.5002 21.6833 18.9391 21.0873 20 20.0264C21.0609 18.9655 21.6569 17.5266 21.6569 16.0262C21.6569 14.5259 21.0609 13.087 20 12.0261C18.9391 10.9652 17.5002 10.3691 15.9998 10.3691Z" fill="white"/>
<path fill-rule="evenodd" clip-rule="evenodd" d="M6.89647 0.502704C12.947 -0.167568 19.0531 -0.167568 25.1036 0.502704C28.4091 0.871722 31.0741 3.47399 31.4622 6.79166C32.1793 12.9269 32.1793 19.1247 31.4622 25.2599C31.0741 28.5776 28.4091 31.1799 25.1054 31.5506C19.0543 32.221 12.9476 32.221 6.89647 31.5506C3.59098 31.1799 0.926047 28.5776 0.537883 25.2617C-0.179294 19.1259 -0.179294 12.9274 0.537883 6.79166C0.926047 3.47399 3.59098 0.871722 6.89647 0.502704ZM24.7033 5.58191C24.2416 5.58191 23.7989 5.7653 23.4725 6.09174C23.146 6.41817 22.9626 6.86091 22.9626 7.32256C22.9626 7.78421 23.146 8.22695 23.4725 8.55338C23.7989 8.87982 24.2416 9.06321 24.7033 9.06321C25.1649 9.06321 25.6077 8.87982 25.9341 8.55338C26.2605 8.22695 26.4439 7.78421 26.4439 7.32256C26.4439 6.86091 26.2605 6.41817 25.9341 6.09174C25.6077 5.7653 25.1649 5.58191 24.7033 5.58191ZM7.73198 16.0258C7.73198 13.833 8.60308 11.7299 10.1536 10.1794C11.7042 8.62882 13.8072 7.75772 16 7.75772C18.1929 7.75772 20.2959 8.62882 21.8465 10.1794C23.397 11.7299 24.2681 13.833 24.2681 16.0258C24.2681 18.2186 23.397 20.3216 21.8465 21.8722C20.2959 23.4228 18.1929 24.2939 16 24.2939C13.8072 24.2939 11.7042 23.4228 10.1536 21.8722C8.60308 20.3216 7.73198 18.2186 7.73198 16.0258Z" fill="white"/>
</svg>
