<svg width="32" height="32" viewBox="0 0 32 32" fill="none" xmlns="http://www.w3.org/2000/svg">
<path fill-rule="evenodd" clip-rule="evenodd" d="M27.4009 0.551111C25.6498 -1.05964e-07 24.0498 0 20.8498 0H11.1502C7.95022 0 6.35022 -1.05964e-07 4.60089 0.551111C3.6719 0.891274 2.82819 1.42979 2.12849 2.12919C1.42879 2.82858 0.889904 3.67205 0.549333 4.60089C5.29819e-08 6.32889 0 7.93956 0 11.1502V20.8444C0 24.0498 -1.05964e-07 25.6498 0.551111 27.4009C0.890432 28.3301 1.42868 29.1741 2.1282 29.8736C2.82772 30.5731 3.67163 31.1113 4.60089 31.4507C6.32889 32 7.93956 32 11.1502 32H20.8498C24.0498 32 25.6498 32 27.4009 31.44C28.3301 31.1007 29.1741 30.5624 29.8736 29.8629C30.5731 29.1634 31.1113 28.3195 31.4507 27.3902C32 25.6604 32 24.0498 32 20.8409V11.1556C32 7.95022 32 6.35022 31.4489 4.60089C31.11 3.67148 30.5721 2.82734 29.8729 2.12751C29.1737 1.42768 28.33 0.89084 27.4009 0.551111ZM22.1333 11.8987C22.0745 11.9581 22.0044 12.0053 21.9272 12.0375C21.85 12.0697 21.7672 12.0863 21.6836 12.0863C21.5999 12.0863 21.5171 12.0697 21.4399 12.0375C21.3627 12.0053 21.2926 11.9581 21.2338 11.8987L21.2444 11.9076C20.0371 10.8577 18.4941 10.2745 16.8942 10.2631C15.5751 10.2631 14.2596 10.7431 14.2596 11.952C14.2596 13.1058 15.4649 13.5467 16.9351 14.0853L17.2996 14.2187C20.1493 15.2036 22.4996 16.4142 22.4996 19.2836C22.4996 22.3982 20.1387 24.5333 16.2649 24.7947L15.9147 26.4889C15.8849 26.6388 15.8039 26.7737 15.6855 26.8704C15.567 26.9671 15.4186 27.0195 15.2658 27.0187L12.8409 26.9991C12.7427 26.9974 12.6461 26.974 12.558 26.9304C12.47 26.8869 12.3927 26.8243 12.3318 26.7472C12.2709 26.6702 12.2279 26.5806 12.2059 26.4848C12.1839 26.3891 12.1834 26.2897 12.2044 26.1938L12.576 24.4089C11.1094 24.0226 9.76718 23.2645 8.67911 22.208C8.61569 22.1452 8.56534 22.0704 8.53098 21.988C8.49662 21.9056 8.47892 21.8173 8.47892 21.728C8.47892 21.6387 8.49662 21.5504 8.53098 21.468C8.56534 21.3856 8.61569 21.3108 8.67911 21.248L10.0302 19.8969C10.1522 19.7752 10.3175 19.7068 10.4898 19.7068C10.6621 19.7068 10.8274 19.7752 10.9493 19.8969C12.2489 21.2036 13.9289 21.7387 15.5289 21.7387C17.2889 21.7387 18.48 21.0098 18.48 19.7636C18.48 18.6702 17.5022 18.3022 15.6498 17.6071L15.0276 17.3742C12.6453 16.5191 10.3893 15.2729 10.3893 12.3733C10.3893 9.024 13.12 7.38844 16.3396 7.22311L16.6898 5.53422C16.7189 5.38544 16.7984 5.25127 16.9151 5.15441C17.0317 5.05755 17.1782 5.00395 17.3298 5.00267H19.7476C20.1636 5.00267 20.4747 5.39378 20.3876 5.808L19.9947 7.70844C21.2295 8.12251 22.371 8.77483 23.3547 9.62845C23.6338 9.89867 23.6498 10.3484 23.3849 10.5991L22.1333 11.8987Z" fill="white"/>
</svg>
