<svg width="32" height="32" viewBox="0 0 32 32" fill="none" xmlns="http://www.w3.org/2000/svg">
<path fill-rule="evenodd" clip-rule="evenodd" d="M28.8 0H3.2C1.44 0 0 1.6 0 3.55556V28.4444C0 30.4 1.44 32 3.2 32H28.8C30.56 32 32 30.4 32 28.4444V3.55556C32 1.6 30.56 0 28.8 0ZM11.2 24.8889H6.4C5.52 24.8889 4.8 24.0889 4.8 23.1111C4.8 22.1333 5.52 21.3333 6.4 21.3333H11.2C12.08 21.3333 12.8 22.1333 12.8 23.1111C12.8 24.0889 12.08 24.8889 11.2 24.8889ZM11.2 17.7778H6.4C5.52 17.7778 4.8 16.9778 4.8 16C4.8 15.0222 5.52 14.2222 6.4 14.2222H11.2C12.08 14.2222 12.8 15.0222 12.8 16C12.8 16.9778 12.08 17.7778 11.2 17.7778ZM11.2 10.6667H6.4C5.52 10.6667 4.8 9.86667 4.8 8.88889C4.8 7.91111 5.52 7.11111 6.4 7.11111H11.2C12.08 7.11111 12.8 7.91111 12.8 8.88889C12.8 9.86667 12.08 10.6667 11.2 10.6667ZM26.72 14.4356L21.648 20.0711C21.024 20.7644 20 20.7644 19.376 20.0711L17.12 17.5467C16.9719 17.3821 16.8544 17.1867 16.7742 16.9716C16.694 16.7566 16.6528 16.5261 16.6528 16.2933C16.6528 16.0606 16.694 15.8301 16.7742 15.615C16.8544 15.4 16.9719 15.2046 17.12 15.04C17.2681 14.8754 17.444 14.7448 17.6375 14.6558C17.8311 14.5667 18.0385 14.5209 18.248 14.5209C18.4575 14.5209 18.6649 14.5667 18.8585 14.6558C19.052 14.7448 19.2279 14.8754 19.376 15.04L20.512 16.3022L24.464 11.9111C24.612 11.7463 24.7878 11.6156 24.9814 11.5263C25.175 11.4371 25.3825 11.3912 25.592 11.3912C25.8016 11.3912 26.009 11.4371 26.2026 11.5263C26.3962 11.6156 26.572 11.7463 26.72 11.9111L26.736 11.9289C27.344 12.6222 27.344 13.76 26.72 14.4356Z" fill="white"/>
</svg>
