<svg width="32" height="32" viewBox="0 0 32 32" fill="none" xmlns="http://www.w3.org/2000/svg">
<path d="M29.4407 0H2.73428C1.275 0 0 1.05 0 2.49214V29.2571C0 30.7079 1.275 32 2.73428 32H29.4328C30.9 32 32 30.7 32 29.2579V2.49214C32.0085 1.05 30.9 0 29.4407 0ZM17.5714 25.3571H10.1657L7.19642 7.60286L13.6786 6.98714L15.25 19.6207C16.7164 17.2314 18.5271 13.4779 18.5271 10.9157C18.5271 9.51429 18.2871 8.55857 17.9121 7.77286L23.8142 6.57857C24.4971 7.70571 24.8042 8.86429 24.8042 10.3336C24.8035 15.0121 20.81 21.09 17.5714 25.3571Z" fill="white"/>
</svg>
