<svg width="32" height="25" viewBox="0 0 32 25" fill="none" xmlns="http://www.w3.org/2000/svg">
<path d="M10.3507 12.6225C10.3507 13.3035 9.81169 13.8218 9.12872 13.8218C8.61773 13.8218 8.23974 13.5315 8.23974 12.9851C8.23974 12.3041 8.76773 11.7577 9.44571 11.7577C9.96269 11.7577 10.3507 12.0761 10.3507 12.6225ZM4.47286 9.91663H4.21187C4.12887 9.91663 4.04487 9.97288 4.03387 10.0673L3.79488 11.5579L4.25087 11.5408C4.86185 11.5408 5.33383 11.4574 5.44483 10.7483C5.57283 10 5.10084 9.91663 4.47286 9.91663ZM20.2504 9.91663H20.0004C19.9004 9.91663 19.8334 9.97288 19.8224 10.0673L19.5894 11.5579L20.0334 11.5408C20.7554 11.5408 21.2553 11.373 21.2553 10.5364C21.2493 9.94476 20.7234 9.91663 20.2504 9.91663ZM32 2.67879V22.3212C31.9992 23.0314 31.718 23.7123 31.218 24.2145C30.718 24.7167 30.0401 24.9992 29.3331 25H2.66692C1.95985 24.9992 1.28197 24.7167 0.781999 24.2145C0.282027 23.7123 0.000794012 23.0314 0 22.3212V2.67879C0.000794012 1.96857 0.282027 1.28768 0.781999 0.785479C1.28197 0.283282 1.95985 0.000797546 2.66692 0H29.3331C30.0401 0.000797546 30.718 0.283282 31.218 0.785479C31.718 1.28768 31.9992 1.96857 32 2.67879ZM7.12878 10.234C7.12878 9.06187 6.22881 8.67115 5.20084 8.67115H2.97891C2.90713 8.67171 2.83805 8.69871 2.78478 8.74703C2.73151 8.79535 2.69775 8.86164 2.68992 8.93331L1.77894 14.6304C1.76195 14.7419 1.84594 14.8534 1.95694 14.8534H3.01291C3.1629 14.8534 3.3019 14.6916 3.3189 14.535L3.56889 13.0504C3.62489 12.6487 4.30187 12.7883 4.56886 12.7883C6.15781 12.7883 7.12978 11.8401 7.12978 10.233L7.12878 10.234ZM11.8066 10.7252H10.7507C10.5397 10.7252 10.5287 11.0325 10.5177 11.1832C10.1957 10.7091 9.7287 10.6247 9.20071 10.6247C7.83976 10.6247 6.80079 11.824 6.80079 13.1468C6.80079 14.2346 7.47877 14.9438 8.56173 14.9438C9.06172 14.9438 9.6837 14.6705 10.0337 14.2798C10.0016 14.3928 9.98285 14.5091 9.97769 14.6264C9.97769 14.7549 10.0337 14.8493 10.1557 14.8493H11.1117C11.2616 14.8493 11.3896 14.6876 11.4176 14.5309L11.9846 10.9431C12.0016 10.8367 11.9176 10.7252 11.8066 10.7252ZM14.0566 16.1882L17.5954 11.0205C17.6234 10.9924 17.6234 10.9642 17.6234 10.9261C17.6234 10.8317 17.5405 10.7312 17.4455 10.7312H16.3785C16.3289 10.7334 16.2805 10.7472 16.2371 10.7714C16.1937 10.7956 16.1565 10.8297 16.1285 10.8708L14.6565 13.0474L14.0456 10.9552C14.0223 10.8918 13.9807 10.8368 13.9263 10.7971C13.8718 10.7574 13.8068 10.7348 13.7396 10.7322H12.7006C12.6056 10.7322 12.5226 10.8327 12.5226 10.9271C12.5226 10.9944 13.6056 14.097 13.7006 14.3923C13.5506 14.6043 12.5616 15.9883 12.5616 16.1561C12.5616 16.2565 12.6446 16.3349 12.7396 16.3349H13.8066C13.8564 16.3314 13.9048 16.3165 13.9481 16.2914C13.9914 16.2664 14.0285 16.2318 14.0566 16.1902V16.1882ZM22.9063 10.234C22.9063 9.06187 22.0063 8.67115 20.9783 8.67115H18.7724C18.6987 8.67118 18.6274 8.69758 18.5713 8.74562C18.5153 8.79366 18.4781 8.86021 18.4664 8.93331L17.5665 14.6253C17.5555 14.7368 17.6384 14.8483 17.7444 14.8483H18.8834C18.9944 14.8483 19.0774 14.765 19.1054 14.6695L19.3554 13.0514C19.4114 12.6497 20.0894 12.7893 20.3554 12.7893C21.9333 12.7893 22.9063 11.8411 22.9063 10.234ZM27.5831 10.7252H26.5272C26.3162 10.7252 26.3052 11.0325 26.2882 11.1832C25.9822 10.7091 25.5102 10.6247 24.9712 10.6247C23.6103 10.6247 22.5713 11.824 22.5713 13.1468C22.5713 14.2346 23.2493 14.9438 24.3322 14.9438C24.8492 14.9438 25.4712 14.6705 25.8042 14.2798C25.7872 14.3632 25.7482 14.542 25.7482 14.6264C25.7482 14.7549 25.8042 14.8493 25.9262 14.8493H26.8872C27.0372 14.8493 27.1652 14.6876 27.1932 14.5309L27.7601 10.9431C27.7771 10.8367 27.6941 10.7252 27.5831 10.7252ZM30.2221 8.86701C30.2221 8.75552 30.1391 8.67216 30.0441 8.67216H29.0161C28.9331 8.67216 28.8491 8.73945 28.8381 8.82282L27.9381 14.6264L27.9221 14.6545C27.9221 14.7549 28.0051 14.8493 28.1161 14.8493H29.0331C29.1721 14.8493 29.3111 14.6876 29.3221 14.5309L30.2221 8.88409V8.86701ZM25.2222 11.7577C24.5442 11.7577 24.0163 12.2991 24.0163 12.9851C24.0163 13.5265 24.4052 13.8218 24.9162 13.8218C25.5832 13.8218 26.1222 13.3086 26.1222 12.6225C26.1282 12.0761 25.7392 11.7577 25.2222 11.7577Z" fill="white"/>
</svg>
